<svg xmlns="http://www.w3.org/2000/svg" version="1.2" viewBox="347 850 1474.95 262"><path fill="evenodd" d="m347 850 59.8.1 59.7.3 4.3 2c5.2 2.6 10.3 7.7 13 13.1l2 4.1v222.8l-2 4.1c-2.6 5.2-7.9 10.6-13.2 13.2l-4.1 2-59.7.2-59.8.1zm64.4 34.8h-29.6v192.5l61.3-.4 2.9-2.3c1.5-1.3 3.4-3.4 4.3-4.8 1.4-2.5 1.4-3.9 1.4-88 0-47-.2-86.4-.6-87.5-.7-2.8-4.8-7.3-7.7-8.5-1.8-.8-8.8-1-32-1z"/><path d="M550 851.3c-7.3 2.6-14 9.4-16.6 16.7-1.2 3.5-1.3 7.6-1.4 48.7 0 49.5 0 49 4.7 55.9 1.4 2 4.2 4.9 6.2 6.3 7 5.4 6 5.3 47.6 5.7 37.4.5 37.4.5 39.8 2.2 1.2.9 3.1 2.9 4 4.4l1.7 2.8.3 34.9c.1 23.5-.1 36-.6 38-1 3.6-4.7 8-8 9.3-1.8.8-7.9 1-26.4 1-22.3 0-24.4-.1-26.9-1.4-6.8-3.5-7.6-6-7.6-25.1V1035l-2-.5c-1.2-.3-8.8-2-17.2-3.9l-15.2-3.5-.2 31.2c-.2 34.8-.1 35.8 4.7 42.3 3.4 4.7 8.3 8.4 13.1 10.1 3.6 1.2 7.7 1.2 51.3 1.3 42.2 0 47.8-.1 51.1-1.2 7.5-2.6 13.8-8.5 16.7-15.7l1.7-4.2V970.3l-2-4.5c-2.6-5.3-7.7-10.9-12.6-13.4-1.9-.9-5.7-2-8.5-2.5-2.7-.3-20-.7-38.2-.7-27.1 0-33.5-.2-35.1-1.1-2.7-1.4-5.8-4.8-6.8-7.3-.5-1.3-.8-10.2-.8-23.7 0-24.4.3-25.7 5.7-29.8l2.7-2.1 25.2-.3c23.9-.2 25.2-.1 28.2 1.4 5.7 2.7 7.8 7.4 7.8 17.1 0 3.2.2 5.8.2 5.8.5 0 31.9 7.4 33.3 7.9 1.3.4 1.4-.7 1.1-22.8-.2-22.2-.2-23.4-1.9-27.4-2.3-5.6-7.7-11.6-13.2-14.3l-4.3-2.2-48.9-.2c-45.3-.1-49.1-.1-52.7 1.1zM719.5 851c-6.7 2.2-13 7.9-16.3 14.9l-2 4.5-.2 44.6c-.3 49.8-.2 50.5 4.6 57.5 4.5 6.6 10.6 10.3 18.7 11.5 2.7.3 20 .7 38.2.7 36.2 0 35.4-.1 39.3 4.5 1 1.2 2.2 3.5 2.6 5 .6 1.8.8 14.3.6 38.3l-.2 35.6-2.1 3.1c-3.8 5.8-4.7 6-32.2 6-23.1 0-24.2 0-27.4-1.5-1.9-1-4-2.8-5.1-4.6-2-3-2-3.1-2.4-19.7l-.4-16.7-10.7-2.3c-5.9-1.4-13.7-3.1-17.3-3.9l-6.5-1.5.3 32.4.2 32.3 2 4.2c2.6 5.6 7.7 10.9 12.9 13.6l4.3 2.2h50c49.9 0 49.9 0 53.5-1.7 5.2-2.4 11-8.3 13.5-13.7l2.2-4.6.2-58.9c.2-40.2-.1-60-.6-62.6-1.1-5.1-5.7-12.2-10.1-15.4-7.2-5.2-6.8-5.2-48-5.6-27.2-.3-37.4-.6-38.6-1.3-2.5-1.5-5.4-5.2-6.2-8.4-.5-1.9-.7-10.6-.6-24.3l.3-21.3 2-3c4-6 4.5-6.1 32.4-6.1 22.6 0 24.7.1 27.2 1.4 5.7 2.9 7.6 6.9 7.6 16.4 0 3.6.1 6.6.3 6.6.4 0 31.7 7.4 33.2 7.9 1.3.3 1.3-.7 1.1-23.2l-.2-23.5-2.2-4.6c-2.5-5.4-8.3-11.4-13.5-13.8-3.6-1.6-3.9-1.6-52.4-1.8-38.7-.1-49.5.1-52 .8zM885.8 981v131h34.8V984.7l30.9-.1 30.8-.3 3.8-17c2.2-9.4 3.7-17.2 3.6-17.6-.2-.3-15.8-.5-34.7-.5h-34.4v-64.4H1025V850H885.8z"/><path fill="evenodd" d="M997.1 1040.8c1 1.3 2.3 4 2.9 6 1.2 4.6-1.1 10.1-8.7 20-13 17-27.3 25.4-35.6 21.1-4.4-2.3-4.4-1.6.9-28.5 3.8-19.2 4.1-23.2 1.9-24-2.3-.9-1.8-4.3.8-5.4 8.2-3.3 32 3.5 37.8 10.8zm-30.1-4.2c0 .4.7 1.5 1.6 2.5 1.5 1.6 1.2 3.2-3 20.7-2.5 10.4-4.6 19.7-4.6 20.6 0 2.7 2.3 1.9 9.7-3.3 10.5-7.4 20.5-21.5 20.5-28.9 0-4.4-2.3-6.7-9.2-9.1-6.4-2.2-15-3.7-15-2.5z"/><path d="M1126.6 1031.9c-.3.4-.8 5.1-1.2 10.4-.7 9.4-.7 9.6-3.3 9.9-3.2.4-3.6 3.6-.6 5.2 3.2 1.8 3.5 2.6 3.5 12.4 0 9.3 0 9.4 3.4 12.8 2.8 2.8 4.1 3.4 7.8 3.4 4.8 0 8.3-1.9 7.6-4.1-.3-.9-2-1.4-5.4-1.4h-4.9l-.3-8.8c-.2-5.5.1-9.4.8-10.2.7-.8 3.6-1.9 6.6-2.5 4.8-1 5.4-1.4 5.4-3.7 0-2.5-.1-2.5-6-1.8-3.3.4-6 .3-6-.2s.5-4.6 1-9.2c.9-7.1.9-8.7-.5-10.7-1.5-2.4-6.8-3.4-7.9-1.5zM1310.7 1031.7c-.3.5-.8 5.2-1.2 10.5-.7 9.5-.7 9.7-3.3 10-3.5.4-3.6 3.8-.2 5.5 2.4 1.2 2.5 1.7 3 11.7.5 9.8.7 10.8 3.2 13.2 4.8 4.9 17.4 4 15.5-1-.5-1.3-1.5-1.5-4.8-1-5.3.9-5.9 0-5.9-10.2 0-8.7.5-9.8 5.3-10.8 1.5-.3 3.8-.8 5.2-1.1 1.9-.4 2.5-1.2 2.5-3.1 0-2.6 0-2.6-6.1-1.9l-6.2.7.6-3.3c2.6-15.1 1.6-19.9-4.3-19.9-1.6 0-3.1.3-3.3.7zM1449.5 1033.2c-.3 1.3-.6 5.9-.7 10.3-.3 7.5-.4 7.9-2.8 8.5-3.4.8-3.6 5.3-.2 5.8 2.1.3 2.2.8 2.2 9.4 0 10.3 1.7 15.1 6.1 17.3 5.8 3.1 14.8 1 13.2-3.1-.4-1.2-1.5-1.3-4.9-.8-4.1.6-4.4.4-5.4-2.1-1.3-3.4-1.3-14.1 0-16.5.6-1.2 2.6-2.1 5.5-2.5q8.3-1.3 6.9-4.8c-.6-1.6-1.4-1.7-6.1-1.1l-5.5.7.7-10c.6-8.6.5-10.2-1-11.6-2.5-2.6-7.3-2.2-8 .5z"/><path fill="evenodd" d="M1737.6 1036.4c1 1.6 2.4 9.4 4 22.2 1.4 10.8 2.9 20.5 3.5 21.6 1.4 2.6-2.7 4.2-5.6 2.2-3.3-2.4-4.9-2.8-5.3-1.6-.6 1.8-5.7 4.2-8.9 4.2-2.9 0-6.8-2.2-9-5-1.7-2-1.6-12.3.1-16.3 2.1-5 7-8.7 11.7-8.7 4.5 0 4.6-.1 2.8-11-.7-3.8-.9-7.6-.6-8.4 1-2.5 5.4-2 7.3.8zm-6.7 22.8c-3.3-.6-8.8 8.2-8.9 14.1 0 3.5 1.6 6.7 3.4 6.7 2.3 0 6.5-9.2 6.8-15 .2-4.4 0-5.5-1.3-5.8z"/><path d="M1636.7 1042.7c-2.7.7-3.7 4.5-3.7 13.3 0 9.1-1.1 13-3.8 13-1 0-2.2.3-2.5.7-1 1 1.3 3.3 3.4 3.3 2.6 0 2.8.7 6 15.7 1.6 7.4 3.1 13.8 3.4 14.4.9 1.4 5.5 1.1 6.1-.5.3-.8-.6-7.4-2.1-14.6-1.5-7.2-2.4-13.8-2.1-14.5.2-.7 2.7-1.6 5.5-2 2.8-.4 5.4-1.1 5.7-1.6 1.2-2.1-1.9-3.9-6.7-3.9-5.6 0-6.1-.9-5.1-9 .6-4.7 1-5.5 2.8-5.6 3-.2 4.4-1.2 4.4-3.3 0-3.7-6.5-6.8-11.3-5.4zM1105.3 1047c-5.9 1.2-8.2 2.7-8.9 5.5-.9 3.6 0 6.3 4.6 13.3 6.3 9.8 5.1 15.1-3.6 16.1l-4.9.6 2.3 2.2c1.6 1.7 3.4 2.3 6.5 2.3 4.9 0 8.1-1.9 10.2-6 2.5-4.8 1.8-8.1-3-15-2.5-3.5-4.5-7.4-4.5-8.6 0-3.1 3.6-5.4 8.7-5.4 4.6 0 6.3-1.4 4.2-3.6-1.9-1.9-6.6-2.4-11.6-1.4zM1291 1046.7c-6.2 1.1-8.8 2.5-10 5.3-1.5 3.6-.5 7 3.9 13.4 4.6 6.7 5.4 9.2 3.6 12.5-1.6 3.2-3.3 4.1-7.6 4.1-3.3 0-3.7 1-1.1 3.3 1.1 1 3.6 1.7 6.1 1.7 3.6 0 4.9-.6 7.7-3.4 5-5 4.7-9.4-1.1-17.9-2.5-3.7-4.5-7.5-4.5-8.6 0-2.8 3.8-5.1 8.5-5.1 5.5 0 7.1-1.2 4.7-3.3-2-1.9-6.4-2.7-10.2-2zM1593.1 1047.1c-9.6 1.9-10.7 7.5-3.6 18.5 5 7.8 5.4 10 2.4 13.8-1.6 2-2.9 2.6-6 2.6-4.3 0-4.8.8-2.1 3.3 2.3 2.1 10 2.2 12.8.2 2.5-1.7 5.4-7.4 5.4-10.3 0-1.2-2-5-4.4-8.5-5.7-8.4-6.2-10.1-3.7-12.6 1.6-1.6 3.4-2.1 7-2.1 6.9 0 7.8-2.6 1.8-4.9-3.2-1.2-3.4-1.2-9.6 0zM1655 1047c0 1.5 6 4.9 7.6 4.3 2.2-.8 1.6-4-.8-4.7-3.5-.9-6.8-.7-6.8.4zM1011.2 1050.1c-2.1.8-2.2 1.3-2.2 15.4 0 13.2.2 14.7 2 16.5 1.1 1.1 2.5 2 3.1 2 2.2 0 4.9-2.1 4.9-3.9 0-7.8 8.2-19 16.7-22.7 7.6-3.4 6.9-4.8-1.8-4.1-7.9.7-11 2.2-14 7l-2 3.2.4-4.5c.7-7.7-1.8-10.8-7.1-8.9zM1339.3 1050.1c-2.2.8-2.3 1.2-2.3 15.4 0 13.2.2 14.7 2 16.5 1.1 1.1 2.6 2 3.4 2 2.2 0 4.6-2.9 4.6-5.4 0-3.2 4.5-11.7 8.2-15.6 1.8-1.8 5.7-4.4 8.6-5.6 7.5-3.4 6.8-4.8-1.9-4.1-7.9.7-11.1 2.3-13.9 6.9l-1.9 3.2-.3-6.4c-.3-6.9-2-8.6-6.5-6.9zM1516.9 1049.7c-2.1.5-2.9 6.2-2.9 19.3 0 8.3.3 10.1 2.1 12.4 2.2 2.8 5 3.4 6.7 1.3.5-.6 1.7-3.8 2.6-6.9 2.4-8.2 6.9-13.7 14.3-17.3 8.3-4 8.3-5.9 0-5.3-7.9.7-12.1 2.8-14.7 7.6l-2 3.7.6-6.1c.6-5.6.4-6.3-1.7-7.8-1.3-.9-2.6-1.5-2.9-1.5-.3.1-1.2.3-2.1.6zM1792.2 1050.1c-2.1.8-2.2 1.3-2.2 15.4 0 13.2.2 14.7 2 16.5 1.1 1.1 2.5 2 3.1 2 2.2 0 4.9-2.1 4.9-3.9 0-7.8 8.2-19 16.7-22.7 7.6-3.4 6.9-4.8-1.8-4.1-7.9.7-11 2.2-14 7l-2 3.2.4-4.5c.7-7.7-1.8-10.8-7.1-8.9z"/><path d="M1043.6 1051.3c-1.7 1.3-1.8 1.6-.2 7q3 10.5 10.8 12.9c2.2.6 4.2 1.8 4.5 2.4.9 2.4-1.7 25.5-3.2 28.4-1.4 2.8-3.7 3.9-11 5.2-1.7.3-1.5.6 1.2 2.1 7.1 3.8 15 1.4 17.7-5.3 1.9-4.8 3.4-18.6 3.8-34.8.2-9.1 0-11.4-1.2-12.2-2.9-1.8-5-1-7.4 2.9-1.4 2.2-3 4.2-3.6 4.6-1.2.7-3-3.5-3-7.1 0-2.4-3.9-7.4-5.8-7.4-.4 0-1.6.6-2.6 1.3zM1187.6 1053.9c-.4.5-1.4 7-2.3 14.5-1.9 15.2-1.6 17.1 3.3 17.1 2.8 0 2.9-.1 4.4-8.5 1.5-8.1 1.7-8.6 5-10.2 4.1-2.1 7.6-2.3 8.6-.6.5.7 1.1 4.4 1.4 8.3.4 6.2.8 7 2.6 7.3 3.5.5 5.4-2.3 5.4-8.1 0-6.1-2.9-13-6.1-14.7-1.4-.8-4.4-1-8.1-.7-5 .4-5.8.3-5.8-1.2 0-.9-.5-2.2-1.2-2.9-1.4-1.4-6.4-1.6-7.2-.3zM1374.6 1054.3c-1.5 1.1-1.9 2.8-2 8.3-.1 8.2 2.2 13.7 6.8 16.5 3.8 2.3 6.7 2.4 10.7.4 2.9-1.6 3-1.6 4 1.5.6 1.6 1.7 3 2.5 3 2.2 0 3.5-7 3.2-17.5l-.3-10-3.2-.3c-3-.3-3.1-.1-4.2 4.8-1.3 6-3.1 9.8-6 12.4-2.1 1.9-2.1 1.9-3.6-1.8-1.1-2.7-1.4-5.3-.9-10 .6-5.8.5-6.5-1.4-7.5-2.7-1.4-3.4-1.4-5.6.2zM1477.6 1054.5c-1.1 1.2-1.6 3.5-1.6 8.3 0 13.6 7.9 21.4 17 16.7 2.9-1.5 3-1.4 4.5 1.5 3.2 6.3 4.9 3 6-11.8.5-7.5.4-10.6-.5-11.7-1.5-1.8-5.9-2-6.5-.3-.2.7-1.1 3.8-1.9 6.8-.8 3-2.8 6.8-4.2 8.4-2.6 2.8-2.8 2.8-4.2 1-1-1.4-1.3-4-1-9.6.3-4.3.2-8.2-.1-8.7-1.2-1.9-5.8-2.3-7.5-.6zM1678.5 1053.9c-.3.5-1.2 5.6-2 11.3-2.5 17.3-1.9 20.8 3.1 20.8 2.5 0 2.8-.6 4.5-10 .7-4.1 1.9-7.1 3.1-8.2 2.4-2.2 8.6-3.4 10-2 .5.5 1.3 4.3 1.6 8.3.6 6.5 1 7.4 2.8 7.7 6.9 1 7.4-14.5.6-21.3-2.5-2.5-3.2-2.7-8.9-2.3-5.3.3-6.3.1-6.3-1.2 0-.9-.5-2.1-1.2-2.8-1.4-1.4-6.4-1.6-7.3-.3z"/><path fill="evenodd" d="M1245.5 1055.4c4.9 2.1 6.1 4.9 3.8 8.9-2.3 3.9-10.6 9.7-13.9 9.7q-4.4 0-.6 3.3c4.1 3.7 9.8 3.1 14.9-1.6 2.9-2.6 5.5-1.6 5.1 1.9-.4 3.7-4.7 6.6-10.6 7.2-10.2.9-20-6.3-21.7-16.1-1.1-5.7.9-9.2 6.8-12.2 5.7-2.8 11.1-3.2 16.2-1.1zm-11.8 6.4c-2.4 2.5-3.7 7.2-2.1 7.2 1.5 0 9.4-7.2 9.4-8.6 0-2.4-4.5-1.6-7.3 1.4z"/><path d="M1414.5 1057.4c-9.5 10.1-5.4 23.7 7.7 25.5 3 .4 6.7.4 8.2 0 3.9-1.1 7.6-4.8 7.6-7.6 0-2-.4-2.3-2.2-1.7-1.2.3-3.5 1.5-5.2 2.5-3.5 2.1-9.6 2.5-11.4.7-.7-.7-1.2-3.2-1.2-5.6 0-5.4 4.1-10.2 8.8-10.2 1.6 0 3.5-.6 4.1-1.3 1.8-2.2-2.1-4.9-7.9-5.5-4.8-.4-5.2-.3-8.5 3.2z"/><path fill="evenodd" d="M1574 1060.9c0 1.6-.9 4-2 5.4-2.5 3.1-10.1 7.7-12.9 7.7-2.9 0-2.6 1.4.6 4 3.5 2.7 8.1 2.2 12.9-1.5 3.8-2.9 6.4-2.7 6.4.5 0 3-4.5 6.7-9.1 7.5-12.2 2.1-23.9-6.9-23.9-18.3 0-4.7 2-7.5 7.5-10.2 8.2-4 20.5-1.1 20.5 4.9zm-15.3-.8c-2.5 1.5-5.1 6.9-3.9 8.1 1.3 1.3 10.2-5.7 10.2-7.8 0-1.6-3.7-1.8-6.3-.3zM1780 1060.9c0 1.6-.9 4-2 5.4-2.5 3.1-10.1 7.7-12.9 7.7-2.9 0-2.6 1.4.6 4 3.5 2.7 8.1 2.2 12.9-1.5 3.8-2.9 6.4-2.7 6.4.3s-4.7 7-9.1 7.7c-12.1 2.1-23.9-6.9-23.9-18.1 0-5 1.9-7.6 7.5-10.4 8.2-4 20.5-1.1 20.5 4.9zm-15.3-.8c-2.5 1.5-5.1 6.9-3.9 8.1 1.3 1.3 10.2-5.7 10.2-7.8 0-1.6-3.7-1.8-6.3-.3zM1176.5 1061.4c2.2 3 1.8 7.4-1 12.2-2.8 4.8-7.9 8.4-12 8.4-7.9 0-14.3-7.8-12.9-15.7 1-5.5 2.2-7.3 5.7-8.8 6.7-3 16.8-1 20.2 3.9zm-12.5-2.4c-1.2 0-3.9 5.8-4.2 8.7-.7 8.5 1.9 10.4 6.9 5 4-4.4 4.2-7.9.8-11.2-1.3-1.4-2.9-2.5-3.5-2.5z"/><path d="M1658.4 1068.2c1 13.4 1.6 15.9 4.2 17 4.2 1.9 5.4.5 5.3-6.4-.1-9.2-1.4-16.8-3-17.9-.8-.5-2.7-.9-4.3-.9h-2.9z"/></svg>
